<mxfile host="www.draw.io" modified="2019-10-28T14:42:32.494Z" agent="Mozilla/5.0 (Windows NT 10.0; Win64; x64) AppleWebKit/537.36 (KHTML, like Gecko) Chrome/77.0.3865.120 Safari/537.36" etag="pcsav2m-u9NSX78myUFc" version="12.1.7" type="github" pages="1">
  <diagram id="sEILYJX3dbO1V5t82YOn" name="Page-1">
    <mxGraphModel dx="1024" dy="566" grid="1" gridSize="10" guides="1" tooltips="1" connect="1" arrows="1" fold="1" page="1" pageScale="1" pageWidth="827" pageHeight="1169" math="0" shadow="0">
      <root>
        <mxCell id="0"/>
        <mxCell id="1" parent="0"/>
        <mxCell id="4KHAkhtwJCvOGNMEtZGW-3" value="" style="rounded=0;whiteSpace=wrap;html=1;fontFamily=Helvetica;" parent="1" vertex="1">
          <mxGeometry x="120" y="40" width="630" height="640" as="geometry"/>
        </mxCell>
        <mxCell id="4KHAkhtwJCvOGNMEtZGW-4" value="&lt;font style=&quot;font-size: 20px&quot;&gt;Overall Use Case&lt;/font&gt;" style="text;html=1;strokeColor=#000000;fillColor=none;align=center;verticalAlign=middle;whiteSpace=wrap;rounded=0;fontStyle=0;strokeWidth=1;" parent="1" vertex="1">
          <mxGeometry x="120" y="40" width="190" height="20" as="geometry"/>
        </mxCell>
        <mxCell id="4KHAkhtwJCvOGNMEtZGW-5" value="PiPossible2019&amp;nbsp; DHBW-Karlsruhe" style="text;html=1;strokeColor=none;fillColor=none;align=center;verticalAlign=middle;whiteSpace=wrap;rounded=0;" parent="1" vertex="1">
          <mxGeometry x="550" y="660" width="200" height="20" as="geometry"/>
        </mxCell>
        <mxCell id="4KHAkhtwJCvOGNMEtZGW-14" style="edgeStyle=orthogonalEdgeStyle;rounded=0;orthogonalLoop=1;jettySize=auto;html=1;exitX=0.5;exitY=0.5;exitDx=0;exitDy=0;exitPerimeter=0;entryX=0.75;entryY=1;entryDx=0;entryDy=0;fontFamily=Helvetica;" parent="1" source="4KHAkhtwJCvOGNMEtZGW-2" target="4KHAkhtwJCvOGNMEtZGW-9" edge="1">
          <mxGeometry relative="1" as="geometry"/>
        </mxCell>
        <mxCell id="4KHAkhtwJCvOGNMEtZGW-19" style="edgeStyle=orthogonalEdgeStyle;rounded=0;orthogonalLoop=1;jettySize=auto;html=1;exitX=0.5;exitY=0.5;exitDx=0;exitDy=0;exitPerimeter=0;entryX=0;entryY=0.5;entryDx=0;entryDy=0;fontFamily=Helvetica;" parent="1" source="4KHAkhtwJCvOGNMEtZGW-2" target="4KHAkhtwJCvOGNMEtZGW-18" edge="1">
          <mxGeometry relative="1" as="geometry">
            <Array as="points">
              <mxPoint x="150" y="140"/>
              <mxPoint x="150" y="280"/>
            </Array>
          </mxGeometry>
        </mxCell>
        <object label="User&lt;br&gt;" id="4KHAkhtwJCvOGNMEtZGW-2">
          <mxCell style="shape=umlActor;verticalLabelPosition=bottom;labelBackgroundColor=#ffffff;verticalAlign=top;html=1;gradientColor=#7ea6e0;fillColor=#dae8fc;strokeColor=#6c8ebf;" parent="1" vertex="1">
            <mxGeometry x="40" y="110" width="30" height="60" as="geometry"/>
          </mxCell>
        </object>
        <mxCell id="4KHAkhtwJCvOGNMEtZGW-28" style="edgeStyle=orthogonalEdgeStyle;rounded=0;orthogonalLoop=1;jettySize=auto;html=1;exitX=0.5;exitY=0;exitDx=0;exitDy=0;fontFamily=Helvetica;dashed=1;" parent="1" source="4KHAkhtwJCvOGNMEtZGW-9" target="4KHAkhtwJCvOGNMEtZGW-25" edge="1">
          <mxGeometry relative="1" as="geometry"/>
        </mxCell>
        <mxCell id="wskfxbOn4kLV55rmMFei-21" style="edgeStyle=orthogonalEdgeStyle;rounded=0;orthogonalLoop=1;jettySize=auto;html=1;exitX=0.75;exitY=0;exitDx=0;exitDy=0;entryX=0.5;entryY=0;entryDx=0;entryDy=0;dashed=1;" edge="1" parent="1" source="4KHAkhtwJCvOGNMEtZGW-9" target="wskfxbOn4kLV55rmMFei-18">
          <mxGeometry relative="1" as="geometry"/>
        </mxCell>
        <mxCell id="4KHAkhtwJCvOGNMEtZGW-9" value="" style="shape=process;whiteSpace=wrap;html=1;backgroundOutline=1;strokeWidth=1;fontFamily=Helvetica;direction=south;" parent="1" vertex="1">
          <mxGeometry x="300" y="89.79998779296875" width="60" height="120" as="geometry"/>
        </mxCell>
        <mxCell id="4KHAkhtwJCvOGNMEtZGW-10" value="Smartphone" style="text;html=1;strokeColor=none;fillColor=none;align=center;verticalAlign=middle;whiteSpace=wrap;rounded=0;fontFamily=Helvetica;" parent="1" vertex="1">
          <mxGeometry x="310" y="210" width="40" height="20" as="geometry"/>
        </mxCell>
        <mxCell id="4KHAkhtwJCvOGNMEtZGW-15" value="Gives Commands" style="text;html=1;strokeColor=none;fillColor=none;align=center;verticalAlign=middle;whiteSpace=wrap;rounded=0;fontFamily=Helvetica;rotation=0;" parent="1" vertex="1">
          <mxGeometry x="170" y="100" width="65" height="20" as="geometry"/>
        </mxCell>
        <mxCell id="4KHAkhtwJCvOGNMEtZGW-18" value="Enjoys Music" style="ellipse;whiteSpace=wrap;html=1;strokeWidth=1;fontFamily=Helvetica;fillColor=#FFFFFF;strokeColor=#6666FF;" parent="1" vertex="1">
          <mxGeometry x="180" y="250" width="105" height="60" as="geometry"/>
        </mxCell>
        <mxCell id="wskfxbOn4kLV55rmMFei-33" style="edgeStyle=orthogonalEdgeStyle;rounded=0;orthogonalLoop=1;jettySize=auto;html=1;exitX=0.5;exitY=0;exitDx=0;exitDy=0;entryX=0.5;entryY=1;entryDx=0;entryDy=0;dashed=1;" edge="1" parent="1" source="4KHAkhtwJCvOGNMEtZGW-20" target="4KHAkhtwJCvOGNMEtZGW-18">
          <mxGeometry relative="1" as="geometry"/>
        </mxCell>
        <mxCell id="4KHAkhtwJCvOGNMEtZGW-20" value="Plays Music" style="ellipse;whiteSpace=wrap;html=1;strokeWidth=2;fontFamily=Helvetica;strokeColor=#33FF33;" parent="1" vertex="1">
          <mxGeometry x="185" y="350" width="105" height="90" as="geometry"/>
        </mxCell>
        <mxCell id="wskfxbOn4kLV55rmMFei-30" style="edgeStyle=orthogonalEdgeStyle;rounded=0;orthogonalLoop=1;jettySize=auto;html=1;exitX=1;exitY=0.3333333333333333;exitDx=0;exitDy=0;exitPerimeter=0;entryX=0;entryY=0.5;entryDx=0;entryDy=0;dashed=1;" edge="1" parent="1" source="4KHAkhtwJCvOGNMEtZGW-21" target="4KHAkhtwJCvOGNMEtZGW-20">
          <mxGeometry relative="1" as="geometry">
            <Array as="points">
              <mxPoint x="140" y="460"/>
              <mxPoint x="140" y="395"/>
            </Array>
          </mxGeometry>
        </mxCell>
        <mxCell id="wskfxbOn4kLV55rmMFei-31" style="edgeStyle=orthogonalEdgeStyle;rounded=0;orthogonalLoop=1;jettySize=auto;html=1;exitX=1;exitY=0.3333333333333333;exitDx=0;exitDy=0;exitPerimeter=0;dashed=1;" edge="1" parent="1" source="4KHAkhtwJCvOGNMEtZGW-21" target="4KHAkhtwJCvOGNMEtZGW-24">
          <mxGeometry relative="1" as="geometry">
            <Array as="points">
              <mxPoint x="140" y="460"/>
              <mxPoint x="140" y="485"/>
            </Array>
          </mxGeometry>
        </mxCell>
        <mxCell id="wskfxbOn4kLV55rmMFei-32" style="edgeStyle=orthogonalEdgeStyle;rounded=0;orthogonalLoop=1;jettySize=auto;html=1;exitX=1;exitY=0.3333333333333333;exitDx=0;exitDy=0;exitPerimeter=0;entryX=0;entryY=0.5;entryDx=0;entryDy=0;dashed=1;" edge="1" parent="1" source="4KHAkhtwJCvOGNMEtZGW-21" target="4KHAkhtwJCvOGNMEtZGW-23">
          <mxGeometry relative="1" as="geometry">
            <Array as="points">
              <mxPoint x="140" y="460"/>
              <mxPoint x="140" y="575"/>
            </Array>
          </mxGeometry>
        </mxCell>
        <mxCell id="4KHAkhtwJCvOGNMEtZGW-21" value="Robot" style="shape=umlActor;verticalLabelPosition=bottom;labelBackgroundColor=#ffffff;verticalAlign=top;html=1;outlineConnect=0;strokeColor=#82b366;strokeWidth=1;fontFamily=Helvetica;gradientColor=#97d077;fillColor=#d5e8d4;" parent="1" vertex="1">
          <mxGeometry x="40" y="440" width="30" height="60" as="geometry"/>
        </mxCell>
        <mxCell id="4KHAkhtwJCvOGNMEtZGW-23" value="Drives towards User" style="ellipse;whiteSpace=wrap;html=1;strokeWidth=2;fontFamily=Helvetica;strokeColor=#33FF33;" parent="1" vertex="1">
          <mxGeometry x="180" y="530" width="105" height="90" as="geometry"/>
        </mxCell>
        <mxCell id="4KHAkhtwJCvOGNMEtZGW-24" value="LEDs blink as ambiant light" style="ellipse;whiteSpace=wrap;html=1;strokeWidth=2;fontFamily=Helvetica;strokeColor=#33FF33;" parent="1" vertex="1">
          <mxGeometry x="180" y="440" width="105" height="90" as="geometry"/>
        </mxCell>
        <mxCell id="4KHAkhtwJCvOGNMEtZGW-30" style="edgeStyle=orthogonalEdgeStyle;rounded=0;orthogonalLoop=1;jettySize=auto;html=1;exitX=0.5;exitY=1;exitDx=0;exitDy=0;entryX=0;entryY=0.3333333333333333;entryDx=0;entryDy=0;entryPerimeter=0;dashed=1;fontFamily=Helvetica;" parent="1" source="4KHAkhtwJCvOGNMEtZGW-25" target="4KHAkhtwJCvOGNMEtZGW-26" edge="1">
          <mxGeometry relative="1" as="geometry"/>
        </mxCell>
        <mxCell id="4KHAkhtwJCvOGNMEtZGW-25" value="Process commands and sends processed commands to Raspberry" style="ellipse;whiteSpace=wrap;html=1;strokeWidth=2;fontFamily=Helvetica;strokeColor=#6666FF;" parent="1" vertex="1">
          <mxGeometry x="470" y="100" width="160" height="110" as="geometry"/>
        </mxCell>
        <mxCell id="wskfxbOn4kLV55rmMFei-15" style="edgeStyle=orthogonalEdgeStyle;rounded=0;orthogonalLoop=1;jettySize=auto;html=1;exitX=0;exitY=1;exitDx=0;exitDy=0;exitPerimeter=0;entryX=1;entryY=0.5;entryDx=0;entryDy=0;dashed=1;" edge="1" parent="1" source="4KHAkhtwJCvOGNMEtZGW-26" target="wskfxbOn4kLV55rmMFei-14">
          <mxGeometry relative="1" as="geometry"/>
        </mxCell>
        <mxCell id="wskfxbOn4kLV55rmMFei-29" style="edgeStyle=orthogonalEdgeStyle;rounded=0;orthogonalLoop=1;jettySize=auto;html=1;exitX=1;exitY=0.3333333333333333;exitDx=0;exitDy=0;exitPerimeter=0;entryX=1;entryY=0.3333333333333333;entryDx=0;entryDy=0;entryPerimeter=0;dashed=1;" edge="1" parent="1" source="4KHAkhtwJCvOGNMEtZGW-26" target="wskfxbOn4kLV55rmMFei-25">
          <mxGeometry relative="1" as="geometry"/>
        </mxCell>
        <mxCell id="4KHAkhtwJCvOGNMEtZGW-26" value="Raspberry Pi 3&lt;br&gt;" style="shape=umlActor;verticalLabelPosition=bottom;labelBackgroundColor=#ffffff;verticalAlign=top;html=1;outlineConnect=0;strokeColor=#b85450;strokeWidth=1;fontFamily=Helvetica;gradientColor=#ea6b66;fillColor=#f8cecc;" parent="1" vertex="1">
          <mxGeometry x="800" y="100" width="30" height="60" as="geometry"/>
        </mxCell>
        <mxCell id="4KHAkhtwJCvOGNMEtZGW-38" value="" style="ellipse;whiteSpace=wrap;html=1;aspect=fixed;strokeColor=#000000;strokeWidth=1;fontFamily=Helvetica;" parent="1" vertex="1">
          <mxGeometry x="324" y="198" width="11" height="11" as="geometry"/>
        </mxCell>
        <mxCell id="56sXVx-GKUsqskNJvJ8G-1" value="" style="ellipse;whiteSpace=wrap;html=1;aspect=fixed;fillColor=#f8cecc;strokeColor=#b85450;" parent="1" vertex="1">
          <mxGeometry x="150" y="640" width="20" height="20" as="geometry"/>
        </mxCell>
        <mxCell id="56sXVx-GKUsqskNJvJ8G-2" value="achievable till december" style="text;html=1;strokeColor=none;fillColor=none;align=center;verticalAlign=middle;whiteSpace=wrap;rounded=0;" parent="1" vertex="1">
          <mxGeometry x="180" y="640" width="140" height="20" as="geometry"/>
        </mxCell>
        <mxCell id="wskfxbOn4kLV55rmMFei-19" style="edgeStyle=orthogonalEdgeStyle;rounded=0;orthogonalLoop=1;jettySize=auto;html=1;exitX=0;exitY=0.5;exitDx=0;exitDy=0;entryX=1;entryY=0.5;entryDx=0;entryDy=0;dashed=1;" edge="1" parent="1" source="wskfxbOn4kLV55rmMFei-5" target="wskfxbOn4kLV55rmMFei-18">
          <mxGeometry relative="1" as="geometry"/>
        </mxCell>
        <mxCell id="wskfxbOn4kLV55rmMFei-23" style="edgeStyle=orthogonalEdgeStyle;rounded=0;orthogonalLoop=1;jettySize=auto;html=1;exitX=0.5;exitY=1;exitDx=0;exitDy=0;entryX=1;entryY=0.5;entryDx=0;entryDy=0;dashed=1;" edge="1" parent="1" source="wskfxbOn4kLV55rmMFei-5" target="wskfxbOn4kLV55rmMFei-7">
          <mxGeometry relative="1" as="geometry"/>
        </mxCell>
        <mxCell id="wskfxbOn4kLV55rmMFei-5" value="Music" style="ellipse;whiteSpace=wrap;html=1;strokeWidth=2;strokeColor=#FF6666;" vertex="1" parent="1">
          <mxGeometry x="540" y="365" width="90" height="60" as="geometry"/>
        </mxCell>
        <mxCell id="wskfxbOn4kLV55rmMFei-28" style="edgeStyle=orthogonalEdgeStyle;rounded=0;orthogonalLoop=1;jettySize=auto;html=1;exitX=0.5;exitY=1;exitDx=0;exitDy=0;entryX=0;entryY=0.3333333333333333;entryDx=0;entryDy=0;entryPerimeter=0;dashed=1;" edge="1" parent="1" source="wskfxbOn4kLV55rmMFei-6" target="wskfxbOn4kLV55rmMFei-25">
          <mxGeometry relative="1" as="geometry">
            <Array as="points">
              <mxPoint x="450" y="625"/>
              <mxPoint x="720" y="625"/>
              <mxPoint x="720" y="400"/>
            </Array>
          </mxGeometry>
        </mxCell>
        <mxCell id="wskfxbOn4kLV55rmMFei-38" style="edgeStyle=orthogonalEdgeStyle;rounded=0;orthogonalLoop=1;jettySize=auto;html=1;exitX=0;exitY=0.5;exitDx=0;exitDy=0;dashed=1;" edge="1" parent="1" source="wskfxbOn4kLV55rmMFei-6">
          <mxGeometry relative="1" as="geometry">
            <mxPoint x="350" y="575" as="targetPoint"/>
          </mxGeometry>
        </mxCell>
        <mxCell id="wskfxbOn4kLV55rmMFei-6" value="Takes Camera Data and determints the position of the User" style="ellipse;whiteSpace=wrap;html=1;strokeColor=#FF6666;strokeWidth=2;" vertex="1" parent="1">
          <mxGeometry x="370" y="545" width="160" height="60" as="geometry"/>
        </mxCell>
        <mxCell id="wskfxbOn4kLV55rmMFei-37" style="edgeStyle=orthogonalEdgeStyle;rounded=0;orthogonalLoop=1;jettySize=auto;html=1;exitX=0;exitY=0.5;exitDx=0;exitDy=0;dashed=1;" edge="1" parent="1" source="wskfxbOn4kLV55rmMFei-7">
          <mxGeometry relative="1" as="geometry">
            <mxPoint x="350" y="485" as="targetPoint"/>
          </mxGeometry>
        </mxCell>
        <mxCell id="wskfxbOn4kLV55rmMFei-7" value="Music from Smartphone get processed to Light code" style="ellipse;whiteSpace=wrap;html=1;strokeWidth=2;strokeColor=#FF6666;" vertex="1" parent="1">
          <mxGeometry x="370" y="455" width="160" height="60" as="geometry"/>
        </mxCell>
        <mxCell id="wskfxbOn4kLV55rmMFei-16" style="edgeStyle=orthogonalEdgeStyle;rounded=0;orthogonalLoop=1;jettySize=auto;html=1;exitX=0.5;exitY=1;exitDx=0;exitDy=0;entryX=1;entryY=0.5;entryDx=0;entryDy=0;dashed=1;" edge="1" parent="1" source="wskfxbOn4kLV55rmMFei-14" target="wskfxbOn4kLV55rmMFei-5">
          <mxGeometry relative="1" as="geometry"/>
        </mxCell>
        <mxCell id="wskfxbOn4kLV55rmMFei-17" style="edgeStyle=orthogonalEdgeStyle;rounded=0;orthogonalLoop=1;jettySize=auto;html=1;exitX=0.5;exitY=1;exitDx=0;exitDy=0;entryX=1;entryY=0.5;entryDx=0;entryDy=0;dashed=1;" edge="1" parent="1" source="wskfxbOn4kLV55rmMFei-14" target="wskfxbOn4kLV55rmMFei-6">
          <mxGeometry relative="1" as="geometry"/>
        </mxCell>
        <mxCell id="wskfxbOn4kLV55rmMFei-14" value="commands activate processes" style="ellipse;whiteSpace=wrap;html=1;strokeColor=#FF6666;strokeWidth=2;" vertex="1" parent="1">
          <mxGeometry x="620" y="280" width="120" height="80" as="geometry"/>
        </mxCell>
        <mxCell id="wskfxbOn4kLV55rmMFei-26" style="edgeStyle=orthogonalEdgeStyle;rounded=0;orthogonalLoop=1;jettySize=auto;html=1;exitX=0.5;exitY=1;exitDx=0;exitDy=0;dashed=1;" edge="1" parent="1" source="wskfxbOn4kLV55rmMFei-18" target="wskfxbOn4kLV55rmMFei-7">
          <mxGeometry relative="1" as="geometry"/>
        </mxCell>
        <mxCell id="wskfxbOn4kLV55rmMFei-34" style="edgeStyle=orthogonalEdgeStyle;rounded=0;orthogonalLoop=1;jettySize=auto;html=1;exitX=0;exitY=0.5;exitDx=0;exitDy=0;entryX=0;entryY=0.3333333333333333;entryDx=0;entryDy=0;entryPerimeter=0;dashed=1;" edge="1" parent="1" source="wskfxbOn4kLV55rmMFei-18" target="4KHAkhtwJCvOGNMEtZGW-21">
          <mxGeometry relative="1" as="geometry">
            <Array as="points">
              <mxPoint x="350" y="690"/>
              <mxPoint x="20" y="690"/>
              <mxPoint x="20" y="460"/>
            </Array>
          </mxGeometry>
        </mxCell>
        <mxCell id="wskfxbOn4kLV55rmMFei-18" value="Takes music from Smartphone" style="ellipse;whiteSpace=wrap;html=1;strokeColor=#FF6666;strokeWidth=2;" vertex="1" parent="1">
          <mxGeometry x="350" y="365" width="90" height="60" as="geometry"/>
        </mxCell>
        <mxCell id="wskfxbOn4kLV55rmMFei-25" value="Raspberry Pi Camera" style="shape=umlActor;verticalLabelPosition=bottom;labelBackgroundColor=#ffffff;verticalAlign=top;html=1;outlineConnect=0;fillColor=#F8CECC;strokeColor=#b85450;gradientColor=#FF6666;" vertex="1" parent="1">
          <mxGeometry x="800" y="380" width="30" height="60" as="geometry"/>
        </mxCell>
      </root>
    </mxGraphModel>
  </diagram>
</mxfile>
